PathFileType	4	(X/Y/Z)	C:/Users/opensim2020/Desktop/walking_exp_matlab/subject03_walking08_straight_03.trc	
DataRate	CameraRate	NumFrames	NumMarkers	Units	OrigDataRate	OrigDataStartFrame	OrigNumFrames	
100.00	100.00	8	51	mm	100.00	2432	299	
Frame#	Time	LFHD			RFHD			LBHD			RBHD			C7			T10			CLAV			STRN			RBAK			LSHO			LUPA			LELB			LFRM			LWRA			LWRB			LFIN			RSHO			RUPA			RELB			RFRM			RWRA			RWRB			RFIN			LASI			RASI			LPSI			RPSI			LTHI			LKNE			LTIB			LANK			LHEE			LTOE			RTHI			RKNE			RTIB			RANK			RHEE			RTOE			*39			*40			*41			*42			*43			*44			*45			*46			*47			*48			*49			*50			
		X1	Y1	Z1	X2	Y2	Z2	X3	Y3	Z3	X4	Y4	Z4	X5	Y5	Z5	X6	Y6	Z6	X7	Y7	Z7	X8	Y8	Z8	X9	Y9	Z9	X10	Y10	Z10	X11	Y11	Z11	X12	Y12	Z12	X13	Y13	Z13	X14	Y14	Z14	X15	Y15	Z15	X16	Y16	Z16	X17	Y17	Z17	X18	Y18	Z18	X19	Y19	Z19	X20	Y20	Z20	X21	Y21	Z21	X22	Y22	Z22	X23	Y23	Z23	X24	Y24	Z24	X25	Y25	Z25	X26	Y26	Z26	X27	Y27	Z27	X28	Y28	Z28	X29	Y29	Z29	X30	Y30	Z30	X31	Y31	Z31	X32	Y32	Z32	X33	Y33	Z33	X34	Y34	Z34	X35	Y35	Z35	X36	Y36	Z36	X37	Y37	Z37	X38	Y38	Z38	X39	Y39	Z39	X40	Y40	Z40	X41	Y41	Z41	X42	Y42	Z42	X43	Y43	Z43	X44	Y44	Z44	X45	Y45	Z45	X46	Y46	Z46	X47	Y47	Z47	X48	Y48	Z48	X49	Y49	Z49	X50	Y50	Z50	X51	Y51	Z51	

1	0.000	-1051.25110	-989.76910	1625.39355	-918.67627	-1004.86945	1628.74744	-1060.21240	-1110.51477	1565.63281	-929.27808	-1121.59827	1569.29028	-991.16479	-1137.46094	1417.32471	-986.98712	-1183.95972	1108.65332	-995.40045	-1017.61987	1337.57971	-1000.06702	-980.84399	1170.18665	-885.54761	-1188.27063	1247.73499	-1149.60376	-1069.08337	1375.47290	-1224.31934	-1100.43884	1180.54492	-1240.62048	-1101.81104	1058.26001	-1243.77405	-1074.17664	931.23206	-1215.75342	-1051.03650	813.38306	-1264.63367	-1077.54956	818.76172	-1258.17883	-1057.00146	736.90680	-834.98743	-1049.97937	1364.12744	-757.06287	-1003.38745	1151.10168	-742.73804	-959.08429	1048.26697	-742.17987	-902.13281	923.85345	-780.75818	-847.83417	842.25775	-734.12665	-871.02075	828.56720	-745.36676	-826.47839	770.26160	-1107.32605	-1031.68530	936.14374	-872.40338	-1026.78455	933.88684	-1059.32153	-1192.22546	964.41461	-909.64569	-1185.90527	977.91864	-1165.80615	-1024.41943	642.19904	-1133.89490	-962.34222	474.09924	-1128.78662	-1025.38306	287.09027	-1085.13074	-1064.46082	81.94037	-1043.73694	-1107.00842	50.26807	-1071.66235	-923.64923	37.10773	-833.72736	-1117.62854	646.41504	-868.34113	-1132.34814	466.97665	-864.61823	-1205.62329	289.62292	-912.89990	-1266.82190	80.92516	-961.44287	-1315.69678	55.05114	-930.84344	-1129.58997	30.26626																																				 
2	0.010	-1051.73193	-983.14575	1624.84534	-919.18713	-998.00134	1628.10730	-1060.61401	-1103.76892	1564.85803	-929.67157	-1114.70020	1568.39697	-991.51001	-1130.50391	1416.86389	-987.16547	-1177.85620	1108.33606	-995.78918	-1010.98895	1336.70642	-999.96820	-974.80164	1169.22009	-885.65503	-1181.68152	1247.58960	-1150.08044	-1062.43701	1374.52930	-1224.09973	-1094.97595	1179.49744	-1240.14185	-1097.33923	1057.26563	-1242.45020	-1070.10876	930.10742	-1214.09900	-1046.98401	812.40289	-1262.53235	-1073.60425	817.37317	-1255.91113	-1053.16968	735.66302	-835.36554	-1042.85583	1363.48584	-757.75195	-996.51013	1150.36780	-743.62256	-952.36475	1047.42480	-743.24353	-895.60162	922.95667	-781.93518	-841.44586	841.20972	-735.39880	-864.55444	827.61847	-746.90039	-820.05890	769.22931	-1107.54822	-1025.64258	935.53149	-872.71790	-1020.73187	933.29962	-1059.61743	-1186.38965	963.70959	-909.89209	-1180.16235	977.23218	-1165.85413	-1018.28491	641.52753	-1132.52368	-954.86304	474.09991	-1128.17395	-1009.86096	284.98849	-1085.18164	-1039.18457	77.99120	-1044.27759	-1080.40540	44.79447	-1070.43787	-896.74017	37.12926	-834.08044	-1112.64905	646.01563	-868.52057	-1128.80847	466.74429	-864.78473	-1203.48767	289.84229	-912.98743	-1266.45508	81.75266	-961.53717	-1315.43213	56.04041	-930.88214	-1129.49622	30.24819																																				 
3	0.020	-1052.31958	-976.41803	1624.26099	-919.62366	-991.29285	1627.43250	-1061.08972	-1096.88965	1563.94910	-930.17877	-1107.78381	1567.47998	-992.00342	-1123.48450	1416.36938	-987.49402	-1171.76746	1107.99695	-996.22675	-1004.27954	1335.85144	-1000.37189	-968.51697	1168.24646	-885.88489	-1175.05591	1247.39160	-1150.58728	-1055.60364	1373.41528	-1223.96191	-1089.41370	1178.42944	-1239.57336	-1092.62000	1056.06519	-1241.40088	-1065.76953	928.84808	-1212.34705	-1042.81128	811.27008	-1260.71997	-1069.57483	816.03333	-1253.64941	-1049.25354	734.30695	-835.94611	-1035.70776	1362.83752	-758.47693	-989.80133	1149.55359	-744.53851	-945.76349	1046.51221	-744.29010	-889.26697	921.89862	-783.15979	-835.29681	840.19427	-736.57068	-858.45856	826.41211	-748.17902	-814.15662	767.99115	-1107.94885	-1019.44305	934.85645	-872.38770	-1015.31970	932.52216	-1059.99194	-1180.59363	962.95795	-910.30768	-1174.30322	976.48621	-1165.57825	-1012.52484	640.44531	-1131.14465	-947.81873	473.79791	-1127.63867	-994.78363	283.08765	-1085.57251	-1014.76074	74.53061	-1044.75208	-1054.30933	40.50357	-1069.49084	-870.16095	37.48679	-834.35547	-1107.75061	645.63861	-868.65320	-1125.18408	466.54938	-864.86450	-1201.30139	290.14221	-912.66431	-1266.22009	82.64488	-961.50879	-1315.18384	57.14719	-930.90308	-1129.43091	30.25485																																				 
4	0.030	-1052.89734	-969.61652	1623.56738	-920.20502	-984.50751	1626.69885	-1061.67114	-1090.00305	1563.03540	-930.75885	-1100.82251	1566.49939	-992.56854	-1116.47095	1415.89392	-988.00073	-1165.45032	1107.54126	-996.90240	-997.37213	1335.03076	-1000.82092	-962.15277	1167.26868	-886.22034	-1168.44250	1247.14014	-1151.08154	-1048.62061	1372.17700	-1223.70032	-1083.63513	1177.27380	-1239.00623	-1087.79089	1054.85486	-1240.21948	-1061.38599	927.54071	-1210.57813	-1038.52844	810.10040	-1258.94177	-1065.52185	814.61346	-1251.35022	-1045.39807	732.88794	-836.54010	-1028.53503	1362.10522	-759.55011	-983.18073	1148.52539	-745.43677	-939.36804	1045.44641	-745.34283	-883.18616	920.65997	-784.31079	-829.47589	838.93958	-737.79810	-852.65802	825.14221	-749.59210	-808.53644	766.54645	-1108.23950	-1013.21039	934.03027	-872.60675	-1009.30389	931.92603	-1060.44763	-1174.35242	961.90558	-910.78198	-1168.39502	975.72223	-1165.78210	-1006.62378	639.41833	-1129.78784	-941.08636	473.39023	-1127.12842	-980.24786	281.42111	-1086.05664	-990.26294	71.90466	-1045.14868	-1028.58301	36.85348	-1068.80432	-844.37183	37.98018	-834.58368	-1102.83203	645.29510	-868.72363	-1121.33167	466.31384	-864.88074	-1198.85754	290.38034	-912.83813	-1265.52979	83.24952	-961.38989	-1314.94495	58.25483	-930.86609	-1129.37146	30.23600																																				 
5	0.040	-1053.54590	-962.69495	1622.79346	-920.90039	-977.53992	1625.95251	-1062.35303	-1082.95422	1562.05920	-931.37213	-1093.84790	1565.51709	-993.23456	-1109.28040	1415.33521	-988.61139	-1159.07214	1107.02686	-997.47961	-990.47656	1334.07446	-1001.22083	-955.63440	1166.17456	-886.66443	-1161.82202	1246.86682	-1151.70862	-1041.64087	1371.09509	-1223.53625	-1077.71619	1176.07092	-1238.40515	-1082.77222	1053.59900	-1239.02686	-1056.81677	926.14661	-1208.96802	-1034.07764	808.87921	-1257.46851	-1061.38281	813.30438	-1249.14465	-1041.47070	731.47083	-837.13281	-1021.40149	1361.34497	-759.94873	-976.85889	1147.62427	-746.32648	-933.15717	1044.32483	-746.46234	-877.40900	919.34778	-785.47058	-824.00867	837.34686	-739.06494	-847.15161	823.69788	-750.96509	-803.28381	765.03815	-1108.61670	-1006.77325	933.20776	-872.85992	-1003.28442	931.35242	-1061.03186	-1167.97180	960.93671	-911.37091	-1162.33276	974.92487	-1165.77258	-1000.93970	638.10907	-1128.39636	-934.66650	472.62460	-1126.63293	-966.27570	279.91049	-1086.67810	-966.39056	69.92484	-1045.89417	-1003.58917	34.21853	-1068.61340	-819.32654	38.86090	-834.78650	-1097.83618	644.90778	-868.75677	-1117.28528	466.00476	-864.82233	-1196.28186	290.58893	-912.75830	-1264.94824	84.06025	-961.12042	-1314.72742	59.41928	-930.94275	-1129.33752	30.19020	-1019.83521	-1052.75354	1673.98010																																	 
6	0.050	-1054.25037	-955.76587	1621.96436	-921.51294	-970.68677	1625.15686	-1063.08704	-1075.91504	1561.02979	-932.13837	-1086.81238	1564.52039	-993.94635	-1102.06665	1414.58118	-989.31769	-1152.63721	1106.50061	-998.07776	-983.44348	1333.12671	-1001.83008	-948.94202	1165.12646	-887.28625	-1155.15125	1246.50000	-1152.49426	-1034.47839	1370.03577	-1223.29431	-1071.62805	1174.85828	-1237.66724	-1077.43921	1052.26001	-1237.95349	-1052.10657	924.75427	-1207.32629	-1029.57324	807.55023	-1255.66663	-1057.14429	811.80096	-1246.84253	-1037.38025	729.95074	-837.77692	-1014.32861	1360.54993	-760.68542	-970.55499	1146.57922	-747.26733	-927.05817	1043.10120	-747.63135	-871.73853	917.92487	-786.82214	-818.51538	835.85052	-740.32397	-841.87152	822.13055	-752.33331	-798.20758	763.32794	-1109.11072	-1000.25189	932.24506	-873.26111	-997.13342	930.80328	-1061.73901	-1161.52551	959.98077	-912.05133	-1156.17517	974.11603	-1165.67737	-995.38013	636.64050	-1127.07068	-928.64972	471.59091	-1126.14771	-952.93719	278.59976	-1087.48254	-943.71246	68.46141	-1046.84436	-979.53644	32.38488	-1068.88354	-795.29810	40.24326	-835.01135	-1092.71887	644.48529	-868.79504	-1113.09583	465.66589	-864.76166	-1193.62354	290.81934	-912.53308	-1264.27588	84.79680	-960.77527	-1314.45068	60.67480	-930.90039	-1129.28284	30.16303	-1021.73462	-1045.32300	1673.20740																																	 
7	0.060	-1054.98804	-948.72534	1621.14917	-922.27979	-963.71136	1624.33545	-1063.93616	-1068.73401	1560.02002	-932.97064	-1079.72473	1563.52661	-994.74512	-1094.80652	1413.83899	-990.11176	-1145.99927	1105.72852	-998.71930	-976.36084	1332.13342	-1002.21497	-942.25391	1164.09985	-888.00940	-1148.43396	1246.06421	-1153.19580	-1027.31091	1368.89612	-1223.24194	-1065.36853	1173.64795	-1236.84216	-1071.96252	1050.93518	-1237.00012	-1047.14954	923.33453	-1205.65698	-1024.95154	806.22461	-1253.56543	-1052.77502	810.16107	-1244.64514	-1033.28699	728.40009	-838.32654	-1007.28613	1359.78015	-761.53088	-964.26447	1145.51501	-748.21198	-921.16528	1041.80640	-748.78534	-866.36243	916.41809	-788.02222	-813.54309	834.17755	-741.53748	-836.86029	820.46625	-753.69934	-793.54480	761.37177	-1109.64014	-993.37488	931.34772	-873.63031	-991.12518	930.24469	-1062.53784	-1154.80725	958.92340	-912.81836	-1149.92700	973.27911	-1165.58765	-989.74622	635.08160	-1125.72290	-922.94843	470.33853	-1125.66772	-940.33557	277.39032	-1088.46167	-921.98694	67.66821	-1047.84314	-956.55420	31.22212	-1069.53564	-772.30530	42.16743	-835.15216	-1087.58655	644.10046	-868.80933	-1108.68262	465.31409	-864.68286	-1190.70874	290.95761	-911.86151	-1263.96411	86.05643	-960.37335	-1314.15784	61.97160	-930.86102	-1129.15710	30.14462	-1023.62793	-1037.76355	1672.47485																																	 
8	0.070	-1055.84509	-941.58636	1620.28284	-923.15594	-956.60522	1623.44373	-1064.82886	-1061.51794	1558.97241	-933.88855	-1072.58655	1562.52454	-995.60474	-1087.49609	1413.12695	-991.08173	-1139.25208	1105.15491	-999.36902	-969.20386	1331.10327	-1002.91583	-935.26642	1162.98608	-888.85980	-1141.66650	1245.52209	-1153.98364	-1020.07269	1368.00244	-1222.91663	-1058.90491	1172.39587	-1236.26831	-1066.31506	1049.73938	-1235.87964	-1042.02124	921.96631	-1204.16333	-1020.05151	804.93433	-1251.97192	-1048.22705	808.76782	-1242.50671	-1029.10901	726.90570	-839.07062	-1000.11340	1358.87439	-762.39191	-958.03162	1144.37415	-749.22363	-915.33301	1040.48938	-749.93890	-861.06915	914.80261	-789.26654	-808.65265	832.34882	-742.78632	-832.06750	818.67792	-755.19562	-789.01459	759.34576	-1110.12390	-986.25330	930.32806	-874.22284	-984.68018	929.62872	-1063.50696	-1148.00562	957.93457	-913.74792	-1143.58557	972.42273	-1165.47961	-984.09143	633.45288	-1124.54602	-917.24286	469.06525	-1125.29126	-928.32220	276.38623	-1089.42505	-901.43488	67.35027	-1048.83704	-934.82764	30.43443	-1070.46045	-750.59869	44.57582	-835.37598	-1082.13062	643.62238	-868.83746	-1104.07227	464.90170	-864.53473	-1187.79944	291.20767	-911.56354	-1263.31824	87.01083	-959.98993	-1313.79126	63.40025	-930.77661	-1129.03467	30.08488																																				 
